<svg xmlns="http://www.w3.org/2000/svg" width="59.906" height="59.906" viewBox="0 0 59.906 59.906">
  <path id="_" data-name="" d="M900,1619.547a29.936,29.936,0,1,1-11.672,2.32,29.649,29.649,0,0,1,11.672-2.32Zm0,57.516a26.569,26.569,0,0,0,10.758-2.18,26.651,26.651,0,0,0,14.625-14.625,27.636,27.636,0,0,0,0-21.516,26.649,26.649,0,0,0-14.625-14.625,27.635,27.635,0,0,0-21.516,0,26.649,26.649,0,0,0-14.625,14.625,27.636,27.636,0,0,0,0,21.516,26.651,26.651,0,0,0,14.625,14.625,26.554,26.554,0,0,0,10.758,2.18Zm15.047-38.25a1.409,1.409,0,0,1,1.2-.562,1.835,1.835,0,0,1,1.336.562,2.169,2.169,0,0,1,.422,1.336,1.41,1.41,0,0,1-.562,1.2l-20.531,19.969a.656.656,0,0,1-.492.352,3.159,3.159,0,0,1-.633.07,3.83,3.83,0,0,1-.773-.07.649.649,0,0,1-.492-.352L886.5,1653.3a1.818,1.818,0,0,1-.562-1.336,1.949,1.949,0,0,1,1.758-1.758,1.835,1.835,0,0,1,1.336.562l6.75,6.75,19.266-18.7Z" transform="translate(-870.047 -1619.547)" fill="#ff6363"/>
</svg>
