<svg xmlns="http://www.w3.org/2000/svg" width="61.313" height="58.781" viewBox="0 0 61.313 58.781">
  <path id="_" data-name="" d="M1310.586,1648.656a5.76,5.76,0,0,1-.281,1.828,5.031,5.031,0,0,1-.844,1.547,4.758,4.758,0,0,1-1.266,1.125,7.776,7.776,0,0,1-1.547.7,8.75,8.75,0,0,1,.7,1.477,5.146,5.146,0,0,1,.281,1.758,5.326,5.326,0,0,1-.281,1.688,7.836,7.836,0,0,1-.7,1.547,9.419,9.419,0,0,1-1.266,1.055,6.937,6.937,0,0,1-1.406.774,7.9,7.9,0,0,1,.7,1.547,5.33,5.33,0,0,1,.281,1.688,5.133,5.133,0,0,1-.281,1.758,8.6,8.6,0,0,1-.7,1.476,6.066,6.066,0,0,1-1.266,1.2,3.7,3.7,0,0,1-1.547.633,5.333,5.333,0,0,1,.844,1.476,5.15,5.15,0,0,1,.281,1.758,4.954,4.954,0,0,1-.422,1.969,5.313,5.313,0,0,1-1.125,1.688,7.38,7.38,0,0,1-1.828,1.125,5.3,5.3,0,0,1-2.109.422h-18.562a10.4,10.4,0,0,1-2.25-.281,17.14,17.14,0,0,1-2.672-.844,22.722,22.722,0,0,1-2.812-1.055q-1.407-.633-2.813-1.2-1.687-.7-3.3-1.406a6.935,6.935,0,0,0-2.32-.7h-12.8v-27.422l1.125-.141h10.969a8.925,8.925,0,0,0,2.32-.281,6.46,6.46,0,0,0,2.18-1.125,22.721,22.721,0,0,0,2.883-1.969q1.615-1.266,3.867-3.094a14.173,14.173,0,0,0,5.133-9.141q.771-5.484.773-6.328a3.333,3.333,0,0,1,.422-1.617,3.076,3.076,0,0,1,1.125-1.2,4.086,4.086,0,0,1,1.476-.773,5.591,5.591,0,0,1,1.477-.211,9.291,9.291,0,0,1,2.25.281,4.587,4.587,0,0,1,2.109,1.266,6.785,6.785,0,0,1,1.547,2.6,13.431,13.431,0,0,1,.563,4.289,28.833,28.833,0,0,1-.352,4.57,36.241,36.241,0,0,1-.914,4.149,23.052,23.052,0,0,1-1.055,3.586q-.633,1.618-1.055,2.742h19.125a6.11,6.11,0,0,1,2.18.352,6.3,6.3,0,0,1,1.758,1.055,4.64,4.64,0,0,1,1.055,1.617,5.682,5.682,0,0,1,.352,2.039Zm-5.344,2.953a3.593,3.593,0,0,0,1.266-.211,1.7,1.7,0,0,0,.844-.633,4.333,4.333,0,0,0,.7-.914,2.375,2.375,0,0,0,.281-1.2,2.7,2.7,0,0,0-.844-1.969,3.043,3.043,0,0,0-2.25-.844H1282.32l.844-1.687q3.935-9.7,3.938-15.609,0-4.641-1.547-5.414a6.071,6.071,0,0,0-2.531-.773,3.236,3.236,0,0,0-1.266.422,1.268,1.268,0,0,0-.844,1.125q0,.844-.141,2.813a23.363,23.363,0,0,1-.844,4.5,29.189,29.189,0,0,1-2.039,5.2,14.2,14.2,0,0,1-3.727,4.641q-2.393,1.971-4.008,3.3a25.117,25.117,0,0,1-3.024,2.18,12.445,12.445,0,0,1-2.812,1.266,10.226,10.226,0,0,1-2.953.422h-9.7v22.781h10.406a7.62,7.62,0,0,1,2.6.633q1.615.633,4.008,1.617,1.124.564,2.461,1.2a23.184,23.184,0,0,0,2.6,1.055q1.4.422,2.531.774a6.7,6.7,0,0,0,1.969.352H1296.8a2.777,2.777,0,0,0,1.266-.281,3.766,3.766,0,0,0,.984-.7,1.681,1.681,0,0,0,.633-.844,3.173,3.173,0,0,0,.211-1.125,3.036,3.036,0,0,0-.211-1.2,2.929,2.929,0,0,0-.633-.914,2.748,2.748,0,0,0-.984-.633,3.585,3.585,0,0,0-1.266-.211h-.281v-2.391h3.234a3.2,3.2,0,0,0,1.125-.211,2.745,2.745,0,0,0,.984-.633,9.451,9.451,0,0,0,.563-.984,2.39,2.39,0,0,0,0-2.25,2.155,2.155,0,0,0-1.547-1.547,2.514,2.514,0,0,0-1.125-.281h-.984v-2.39h3.516a3.2,3.2,0,0,0,1.125-.211,2.742,2.742,0,0,0,.984-.633,3.773,3.773,0,0,0,.7-.984,2.5,2.5,0,0,0,.281-1.125,2.8,2.8,0,0,0-.281-1.266,2.155,2.155,0,0,0-.7-.844,3.811,3.811,0,0,0-.984-.7,2.514,2.514,0,0,0-1.125-.281h-1.125v-2.391Z" transform="translate(-1249.273 -1620.109)" fill="#00a2ff"/>
</svg>
