<svg xmlns="http://www.w3.org/2000/svg" width="56.531" height="56.531" viewBox="0 0 56.531 56.531">
  <path id="_" data-name="" d="M548.266,1673.812l-2.953,2.953L529,1660.453a18.616,18.616,0,0,1-3.094,2.25,24.169,24.169,0,0,1-3.516,1.688,20.231,20.231,0,0,1-3.867,1.055,23.511,23.511,0,0,1-4.008.352,21.872,21.872,0,0,1-8.93-1.828,23.519,23.519,0,0,1-7.242-4.922,22.551,22.551,0,0,1-4.852-7.242,22.264,22.264,0,0,1-1.758-8.789,22.591,22.591,0,0,1,22.781-22.781,22.315,22.315,0,0,1,8.789,1.758,22.673,22.673,0,0,1,7.242,4.852,23.647,23.647,0,0,1,4.922,7.242,21.926,21.926,0,0,1,1.828,8.93,23.7,23.7,0,0,1-.352,4.008,20.476,20.476,0,0,1-1.055,3.867,24.5,24.5,0,0,1-1.687,3.516,18.665,18.665,0,0,1-2.25,3.094l16.313,16.312Zm-54.141-30.8a19.963,19.963,0,0,0,5.906,14.344,20.881,20.881,0,0,0,6.539,4.43,19.724,19.724,0,0,0,7.945,1.617,19.241,19.241,0,0,0,7.875-1.617,21.315,21.315,0,0,0,10.9-10.9,19.267,19.267,0,0,0,1.617-7.875,19.769,19.769,0,0,0-1.617-7.945,21.008,21.008,0,0,0-4.43-6.539,20.252,20.252,0,0,0-6.469-4.36,20.019,20.019,0,0,0-7.875-1.547,20.524,20.524,0,0,0-7.945,1.547,20.038,20.038,0,0,0-10.9,10.9,20.493,20.493,0,0,0-1.547,7.945Z" transform="translate(-491.734 -1620.234)" fill="#5474fd"/>
</svg>
