<svg xmlns="http://www.w3.org/2000/svg" width="19.986" height="20.043" viewBox="0 0 19.986 20.043">
  <path id="_" data-name="" d="M1207.993,445.98l-1.044,1.047-5.767-5.784a6.589,6.589,0,0,1-1.094.8,8.519,8.519,0,0,1-1.243.6,7.122,7.122,0,0,1-1.367.374,8.29,8.29,0,0,1-1.417.125,7.716,7.716,0,0,1-3.157-.648,8.318,8.318,0,0,1-2.56-1.745,8,8,0,0,1-1.715-2.568,7.914,7.914,0,0,1-.622-3.116,7.993,7.993,0,0,1,8.054-8.077,7.868,7.868,0,0,1,3.107.623,8.018,8.018,0,0,1,2.561,1.72,8.39,8.39,0,0,1,1.74,2.568,7.793,7.793,0,0,1,.646,3.166,8.428,8.428,0,0,1-.124,1.421,7.271,7.271,0,0,1-.373,1.371,8.694,8.694,0,0,1-.6,1.246,6.61,6.61,0,0,1-.8,1.1l5.767,5.784Zm-19.141-10.919a7.088,7.088,0,0,0,2.088,5.086,7.385,7.385,0,0,0,2.312,1.57,6.959,6.959,0,0,0,2.809.573,6.787,6.787,0,0,0,2.784-.573,7.547,7.547,0,0,0,3.853-3.864,6.847,6.847,0,0,0,.572-2.792,7.023,7.023,0,0,0-.572-2.817,7.45,7.45,0,0,0-1.566-2.318,7.158,7.158,0,0,0-2.287-1.546,7.061,7.061,0,0,0-2.784-.548,7.24,7.24,0,0,0-2.809.548,7.1,7.1,0,0,0-3.853,3.864,7.284,7.284,0,0,0-.547,2.817Z" transform="translate(-1188.007 -426.984)" fill="#fff"/>
</svg>
